<svg xmlns="http://www.w3.org/2000/svg" version="1.0" width="1500.000000pt" height="1500.000000pt" viewBox="0 0 840.000000 880.000000" preserveAspectRatio="xMidYMid meet">
<g transform="translate(0.000000,880.000000) scale(0.100000,-0.100000)" fill="#000000" stroke="none">
<path d="M2775 8384 c-16 -2 -73 -9 -125 -15 -450 -51 -924 -237 -1295 -507 -584 -425 -980 -1061 -1104 -1772 -49 -282 -54 -636 -11 -914 92 -609 369 -1149 806 -1577 427 -417 940 -670 1554 -766 166 -26 648 -26 805 0 507 84 911 252 1291 538 l107 81 98 -98 99 -99 0 -160 0 -160 1257 -1257 c692 -692 1262 -1258 1268 -1258 13 0 665 652 665 665 0 6 -564 574 -1253 1263 l-1253 1252 -174 0 -175 0 -96 96 -97 97 59 74 c232 292 421 674 513 1040 113 447 114 935 1 1383 -274 1092 -1165 1898 -2289 2072 -98 15 -194 21 -376 23 -135 2 -258 1 -275 -1z m600 -823 c551 -109 994 -400 1294 -849 312 -466 410 -1066 266 -1627 -180 -701 -727 -1243 -1435 -1420 -304 -76 -677 -78 -975 -4 -590 146 -1068 532 -1322 1065 -141 297 -200 591 -190 938 8 263 46 453 137 686 102 258 256 486 462 685 301 291 662 470 1079 535 175 27 523 23 684 -9z"/>
</g>
</svg>